<svg xmlns="http://www.w3.org/2000/svg" xmlns:xlink="http://www.w3.org/1999/xlink" width="100.0" height="100.0" viewBox="-118.73103551991946 33.64822373845557 1.0700522433431274 0.8531305594954119" preserveAspectRatio="xMinYMin meet"><g transform="matrix(1,0,0,-1,0,68.14957803640655)"><g><path fill-rule="evenodd" fill="#66cc99" stroke="#555555" stroke-width="0.021401044866862548" opacity="0.6" d="M -118.46441565537617,33.912407972754664 L -118.48660773356761,33.91214699066863 L -118.4869478503383,33.93170403506358 L -118.48949796336078,33.93167380492152 L -118.48979210881491,33.948544310509504 L -118.51149635542016,33.948286867681325 L -118.51180858866003,33.965915793949 L -118.51309332331452,33.96590030903097 L -118.51339397456074,33.98285290645022 L -118.53464577483425,33.982593584793754 L -118.53502257445203,34.00352823803082 L -118.54104390783743,34.003454271133286 L -118.54197407741373,34.05487927146083 L -118.50184790142937,34.05537283867888 L -118.50217668178097,34.07401797757738 L -118.46123465245739,34.074508555953045 L -118.46154276650005,34.09245507508941 L -118.42169975247016,34.0929194460947 L -118.42200488495585,34.111173737606414 L -118.38154755894165,34.111632346418254 L -118.38184928490716,34.13019430790678 L -118.3416510980481,34.13063696050537 L -118.34194299616178,34.149115330284 L -118.30186966675986,34.149543742355156 L -118.30215911977255,34.168413619689204 L -118.26150436374934,34.16883508101247 L -118.2617704857024,34.18672695961019 L -118.22107267594389,34.18713567461466 L -118.2213373003169,34.20550284028852 L -118.1807981300497,34.205896707718686 L -118.1811353145568,34.23007804018856 L -118.10561759397274,34.230782247996004 L -118.10538035960965,34.21260696789501 L -118.086626392823,34.212777390058605 L -118.08648875111007,34.20204366780698 L -118.05805876890527,34.20229967643949 L -118.05792371240832,34.191473742738324 L -118.03437676438818,34.19167848561283 L -118.03433196975183,34.188005570452056 L -117.99311751929652,34.188354620915455 L -117.99305403773718,34.18293022018363 L -117.97232568289142,34.18309648016279 L -117.97240782262595,34.190264202705414 L -117.8813246683301,34.19095231773249 L -117.88108617547519,34.1679901939767 L -117.87279351734664,34.168051048877324 L -117.87257480536405,34.14677920735153 L -117.8516943087995,34.14692855832566 L -117.85144569637738,34.12212951162466 L -117.84253628307677,34.12219266875396 L -117.84232546263941,34.10091502519044 L -117.8212283909853,34.10106169162682 L -117.82100191866336,34.077589201240585 L -117.81222040951089,34.077649254712334 L -117.81202273458354,34.05691869151895 L -117.79089631311162,34.0570598496428 L -117.79066962574683,34.03262321518798 L -117.78130655670078,34.03268515776502 L -117.78111461300887,34.011721521829905 L -117.75984767454871,34.011858265019065 L -117.7596309140976,33.98749559435747 L -117.7516983966451,33.9875461083379 L -117.75152076313859,33.96734684836966 L -117.73019202834831,33.96747876679643 L -117.72999648026992,33.9445688303728 L -117.72176613262151,33.94461919307608 L -117.72158797680756,33.923485499769484 L -117.70108652757219,33.923608342777385 L -117.7006148411446,33.86594831439122 L -117.75489367964711,33.865623563827675 L -117.75472804968481,33.846811930356466 L -117.79502132393888,33.84655542272654 L -117.79484860901513,33.82791606248649 L -117.83506347343801,33.82764710122425 L -117.83488162572583,33.80895009435096 L -117.87449951105073,33.80867241703952 L -117.87431214734792,33.7902640946446 L -117.914266636206,33.78997128545793 L -117.91406690376294,33.77118800188204 L -117.95335555568995,33.77088756065858 L -117.95315702260238,33.75297014304933 L -117.99288602922074,33.75265376026028 L -117.9926727546055,33.73415938569008 L -118.03329062184615,33.73382292143263 L -118.03306675064744,33.71515559240522 L -118.07322625515722,33.71480990329362 L -118.07299282326069,33.69605619857685 L -118.13306210940085,33.69551986404677 L -118.13314436731112,33.701778080563216 L -118.19094535059455,33.701242741378046 L -118.19103178655371,33.70749585780425 L -118.21197836470303,33.70729205508422 L -118.21171361322034,33.68845256302924 L -118.27115328915362,33.68785530302383 L -118.2712118504491,33.69182764652197 L -118.33647917875484,33.691143467025064 L -118.33682460726459,33.71342262548324 L -118.34089747299082,33.7133793684982 L -118.34125145640076,33.73611964741832 L -118.36721169579081,33.73584087438829 L -118.36758241969981,33.75917434426227 L -118.3727680718619,33.75911794572365 L -118.37281574403211,33.762104165563905 L -118.3779040751219,33.76204888790393 L -118.37823481362088,33.78268754163216 L -118.39607853110617,33.78249181580918 L -118.3964370480871,33.804551407587965 L -118.40194817829043,33.80449006169082 L -118.40231443770897,33.826917671753066 L -118.42683978944775,33.82664257891373 L -118.42723431019931,33.850353043669394 L -118.43338995232317,33.85028274433566 L -118.43376184823963,33.87251899067227 L -118.45807283784285,33.872237168675746 L -118.4584270794533,33.893041536574195 L -118.46408311340562,33.89297571006538 L -118.46441565537617,33.912407972754664 z" /><path fill-rule="evenodd" fill="#66cc99" stroke="#555555" stroke-width="0.021401044866862548" opacity="0.6" d="M -118.54506997993899,34.32907704911132 L -118.56854188937724,34.32878079081505 L -118.56888731206114,34.34732066221076 L -118.59165973328606,34.34702890820661 L -118.59200721658209,34.365395431149324 L -118.61499298597388,34.365096485440176 L -118.61533581697968,34.382943391221175 L -118.63884803476537,34.38263304075638 L -118.63920671781146,34.40102048964323 L -118.66314131068772,34.40069980084304 L -118.66351583864355,34.419605862661925 L -118.69056208258611,34.41923769455542 L -118.69140395535119,34.46101371666924 L -118.63937342068728,34.46172273338272 L -118.63895332852653,34.440215189198256 L -118.61524191195593,34.44053320304574 L -118.61487906355639,34.42166490510756 L -118.59164258228061,34.42197191686844 L -118.59127872434833,34.402757278268915 L -118.56880419258005,34.403049851821216 L -118.56847606226059,34.38545763146357 L -118.54545787043274,34.38575281954079 L -118.54510424732551,34.3664944193869 L -118.52284765614702,34.3667756050442 L -118.52251235601975,34.34823093942218 L -118.4989821140664,34.34852355709079 L -118.49866422081614,34.33064937203968 L -118.4762601454722,34.330923762779086 L -118.47593932943579,34.312594831394286 L -118.45291398567916,34.312872499743484 L -118.45224650691829,34.27409828812444 L -118.50007389496217,34.2735220943137 L -118.50040588099321,34.29219260305483 L -118.52204318202907,34.29192786199643 L -118.52238650841034,34.31094430751899 L -118.54473241032719,34.31066668111203 L -118.54506997993899,34.32907704911132 z" /></g></g></svg>